<svg xmlns="http://www.w3.org/2000/svg" xmlns:xlink="http://www.w3.org/1999/xlink" version="1.1" x="0px" y="0px" viewBox="0 0 100 125" style="enable-background:new 0 0 100 100;" xml:space="preserve"><path d="M83.3,43.9c0-0.4-0.2-2.4-2-4.4c-1.9-2.2-4.9-3.4-8.8-3.7c-0.4-0.6-0.9-1.2-1.7-1.8c-2.2-1.7-5.6-2.6-10-2.7  c-0.4-0.5-1.1-1.1-1.9-1.7c-2-1.4-4.5-2.2-7.6-2.5V19c0-0.8,0.1-4.2-2.2-6.6c-1-1.1-2.9-2.4-6.1-2.4c-3.3,0-5.2,1.3-6.3,2.4  c-2.1,2.3-2.1,5.3-2.1,6v28.6c-1.9-2-4-4.2-5.2-5c-2.5-1.9-7.2-0.9-9.9,1.1c-2.6,1.9-3.5,4.8-2.5,7.6c1.8,5,6.3,10,7.4,11.2  c1,1.9,5.5,10.2,9.5,13.2c2.1,1.6,3.7,8.2,4.1,12.4l0.2,2.2h37.8v-9.9c0.5-1.4,1.7-4.4,3-5.8c3.1-3.1,4.1-10.9,4.1-13.3V44  L83.3,43.9z M78.4,60.5c0,2.9-1.2,8.4-2.7,9.9c-2.6,2.6-4.2,7.6-4.3,8.1l-0.1,0.3v5.8H42.7c-0.2-1.1-0.4-2.5-0.8-4  c-1.2-4.8-2.8-7.9-4.9-9.5c-2.9-2.2-7-9.3-8.3-11.9l-0.2-0.3l-0.2-0.3c0-0.1-4.9-5.1-6.6-9.7c-0.2-0.6-0.2-1.1,0.5-1.8  c1.3-1.2,3.8-1.5,4.4-1.3c1.5,1.2,6.1,6.1,8.7,9l4.3,4.8V18.3l0-0.1l0-0.1c0-0.4,0.1-1.7,0.8-2.4c0.5-0.6,1.4-0.9,2.7-0.9  c1.1,0,1.9,0.3,2.5,0.8c0.8,0.9,0.9,2.5,0.9,3.1l0,10.7h0v15.2h4.9V32c4.5,0.5,5.8,2.4,6,2.7l0.2,0.5v9.4h4.9v-8.3  c4.2,0.4,5.8,1.7,6.2,2.3v9.5h4.9v-7.3c4.3,0.6,5,2.9,5.1,3.4V60.5z"/><text x="0" y="115" fill="#000000" font-size="5px" font-weight="bold" font-family="'Helvetica Neue', Helvetica, Arial-Unicode, Arial, Sans-serif">Created by Raj Daneja</text><text x="0" y="120" fill="#000000" font-size="5px" font-weight="bold" font-family="'Helvetica Neue', Helvetica, Arial-Unicode, Arial, Sans-serif">from the Noun Project</text></svg>